<svg xmlns="http://www.w3.org/2000/svg" viewBox="0 0 1534.3 1534.3">
  <style>
    path { fill: #18181b; }
    @media (prefers-color-scheme: dark) { path { fill: #fafafa; } }
  </style>
  <svg x="105.8" y="220.103" width="1322.699009" height="1094.094125" viewBox="0 0 1322.699009 1094.094125">
    <g transform="translate(-117.371307,1180.080291) scale(0.1,-0.1)">
<path d="M1425 11790 c-3 -5 -19 -10 -36 -10 -16 0 -29 -4 -29 -10 0 -5 -6
-10 -13 -10 -30 0 -147 -130 -147 -163 0 -9 -6 -17 -12 -19 -19 -7 -19 -7622
0 -7661 6 -15 18 -39 25 -54 31 -70 158 -163 221 -163 14 0 28 -5 31 -10 4 -7
355 -10 1020 -10 665 0 1016 -3 1020 -10 3 -5 17 -10 31 -10 13 0 24 -4 24
-10 0 -5 9 -10 20 -10 11 0 20 -4 20 -10 0 -5 6 -10 14 -10 18 0 88 -68 112
-109 10 -17 22 -31 26 -31 4 0 8 -9 8 -20 0 -11 5 -20 10 -20 6 0 10 -11 10
-24 0 -14 5 -28 10 -31 7 -4 10 -388 10 -1120 0 -732 3 -1116 10 -1120 6 -3
10 -19 10 -35 0 -67 91 -180 175 -219 17 -7 38 -17 47 -22 10 -5 924 -9 2123
-9 2104 0 2104 0 2160 26 57 26 155 114 155 140 0 8 3 14 8 14 30 0 32 85 32
1240 0 767 -3 1160 -10 1160 -5 0 -10 7 -10 16 0 25 -41 95 -76 129 -33 33
-57 48 -136 87 -10 4 -942 8 -2072 8 -1359 0 -2057 3 -2061 10 -3 6 -22 10
-41 10 -19 0 -34 5 -34 10 0 6 -6 10 -13 10 -18 0 -67 24 -67 33 0 4 -6 7 -14
7 -19 0 -126 107 -126 126 0 8 -4 14 -10 14 -5 0 -10 9 -10 20 0 11 -3 20 -8
20 -32 0 -32 44 -32 3822 0 2799 -3 3751 -12 3777 -6 20 -18 51 -26 70 -18 42
-123 151 -146 151 -9 0 -16 3 -16 8 0 4 -18 13 -40 20 -51 16 -2125 18 -2135
2z"/>
<path d="M7065 11790 c-3 -5 -19 -10 -36 -10 -16 0 -29 -4 -29 -10 0 -5 -7
-10 -16 -10 -8 0 -39 -24 -68 -52 -50 -52 -86 -112 -102 -173 -10 -39 -10
-6268 0 -6317 5 -21 12 -38 17 -38 5 0 9 -7 9 -15 0 -8 6 -25 13 -38 20 -36
114 -127 131 -127 9 0 16 -3 16 -8 0 -29 88 -32 1070 -32 982 0 1070 3 1070
32 0 5 6 8 14 8 19 0 106 87 106 106 0 8 5 14 10 14 6 0 10 13 10 28 0 15 4
32 10 38 5 5 11 97 13 204 5 198 12 270 28 270 5 0 9 9 9 20 0 11 5 20 10 20
6 0 10 7 10 15 0 22 70 103 126 145 37 28 106 60 129 60 13 0 27 4 30 10 4 7
303 10 863 10 822 0 859 -1 910 -19 98 -36 172 -89 219 -156 37 -53 63 -105
63 -125 0 -11 5 -20 10 -20 7 0 10 -753 10 -2239 0 -1483 3 -2242 10 -2246 6
-3 10 -17 10 -30 0 -64 91 -175 175 -214 17 -7 38 -17 47 -22 25 -13 2195 -12
2203 1 3 6 13 10 21 10 35 0 154 98 154 128 0 6 3 12 8 12 10 0 32 50 32 71 0
10 5 21 10 24 15 9 14 10377 -2 10424 -6 20 -18 52 -26 71 -17 40 -125 150
-147 150 -8 0 -15 5 -15 10 0 6 -13 10 -28 10 -15 0 -33 5 -38 10 -12 12
-2131 8 -2181 -4 -18 -5 -33 -12 -33 -17 0 -5 -6 -9 -14 -9 -7 0 -38 -24 -67
-52 -53 -52 -89 -112 -105 -173 -5 -16 -9 -876 -11 -1910 -2 -1229 -7 -1883
-13 -1889 -6 -6 -10 -20 -10 -33 0 -13 -4 -23 -10 -23 -5 0 -10 -9 -10 -20 0
-11 -4 -20 -10 -20 -5 0 -10 -6 -10 -14 0 -23 -122 -140 -170 -162 -92 -44
-106 -46 -310 -54 -294 -11 -1549 2 -1575 17 -11 6 -42 21 -70 34 -53 25 -159
124 -170 159 -3 11 -11 20 -16 20 -5 0 -9 9 -9 20 0 11 -4 20 -9 20 -5 0 -12
17 -16 38 -5 20 -11 890 -14 1932 -3 1042 -10 1904 -14 1915 -32 75 -57 115
-96 153 -24 23 -50 42 -58 42 -7 0 -13 3 -13 8 0 4 -18 13 -40 20 -51 16
-2005 18 -2015 2z"/>
<path d="M1415 2768 c-70 -25 -97 -41 -144 -87 -27 -26 -59 -68 -72 -92 -24
-44 -24 -44 -24 -769 0 -725 0 -725 23 -771 25 -51 88 -129 103 -129 6 0 17
-7 26 -15 8 -9 28 -19 44 -22 16 -3 29 -9 29 -14 0 -5 304 -9 694 -9 694 0
694 0 738 22 70 37 168 143 168 183 0 8 5 15 10 15 14 0 14 1466 0 1475 -5 3
-10 15 -10 26 0 10 -4 19 -10 19 -5 0 -10 6 -10 13 0 8 -19 34 -42 58 -43 44
-105 80 -163 95 -48 13 -1325 14 -1360 2z"/>
    </g>
  </svg>
</svg>
